# xmcd
# 
# Track frame offsets:
#     150
#     16583
#     41359
#     64456
# 
# Disc length: 1106
# 
# Revision: 0
# Processed by: cddbd v1.5.2PL0 Copyright (c) Steve Scherf et al.
# Submitted via: fre:ac v1.0.17
# 
DISCID=28045004
DTITLE=Hélène Ségara - Humaine
DYEAR=2004
DGENRE=
TTITLE0=On ne dit pas
TTITLE1=Humaine
TTITLE2=On n'oublie jamais rien
TTITLE3=L'amour est un soleil
EXTD=
EXTT0=
EXTT1=
EXTT2=
EXTT3=
PLAYORDER=
